<svg id="visual" viewBox="0 0 900 600" width="900" height="600" xmlns="http://www.w3.org/2000/svg" xmlns:xlink="http://www.w3.org/1999/xlink" version="1.1"><g transform="translate(10.017720114908371 558.6656321772233)"><path d="M124.1 -144.6C145.7 -129.7 137.9 -76.3 177.2 -8.3C216.6 59.7 303.1 142.4 296.2 186.6C289.2 230.8 188.7 236.6 99.7 265.2C10.7 293.8 -66.8 345.2 -121.5 327.9C-176.2 310.5 -208 224.5 -241.4 148.3C-274.8 72.1 -309.8 5.6 -315.7 -72.2C-321.7 -150.1 -298.7 -239.3 -241.3 -248C-183.8 -256.6 -91.9 -184.6 -20.4 -160.3C51.2 -136 102.4 -159.6 124.1 -144.6" fill="#000"></path></g></svg>